<?xml version="1.0" standalone="no"?>
<!DOCTYPE svg PUBLIC "-//W3C//DTD SVG 20010904//EN"
 "http://www.w3.org/TR/2001/REC-SVG-20010904/DTD/svg10.dtd">
<svg version="1.0" xmlns="http://www.w3.org/2000/svg"
 width="1024.000000pt" height="1024.000000pt" viewBox="0 0 1024.000000 1024.000000"
 preserveAspectRatio="xMidYMid meet">
<metadata>
Created by potrace 1.11, written by Peter Selinger 2001-2013
</metadata>
<g transform="translate(0.000000,1024.000000) scale(0.100000,-0.100000)"
fill="#000000" stroke="none">
<path d="M1487 8731 c-6 -11 -2 -709 3 -715 3 -2 28 -7 55 -10 28 -4 61 -8 75
-11 14 -2 48 -7 75 -10 28 -3 97 -13 155 -21 58 -8 123 -17 145 -20 74 -10
100 -15 106 -22 4 -4 43 -106 88 -227 45 -121 98 -261 117 -312 19 -50 39
-104 44 -120 5 -15 17 -50 28 -78 10 -27 94 -252 187 -500 367 -986 589 -1584
615 -1655 86 -234 293 -790 304 -820 8 -19 23 -60 34 -90 12 -30 57 -152 101
-270 225 -607 396 -1066 553 -1490 66 -179 124 -334 128 -345 5 -11 89 -236
186 -500 98 -264 179 -482 180 -483 4 -6 924 -5 930 0 2 3 90 236 195 519 105
283 193 521 196 529 3 8 7 20 9 25 3 10 95 255 119 315 8 19 52 139 99 265
137 373 312 844 326 879 5 11 84 224 176 471 249 675 268 725 521 1405 230
619 289 777 424 1140 79 212 144 387 145 390 0 3 4 12 7 20 10 23 68 178 87
235 28 79 110 298 119 320 5 11 39 102 76 202 74 202 58 184 175 198 48 6 110
14 150 20 14 2 49 7 79 10 30 4 62 8 71 10 9 2 39 6 66 10 27 3 71 9 99 13
l50 7 0 360 0 360 -1237 1 -1236 2 -1 -359 c0 -197 3 -360 7 -363 6 -3 54 -11
137 -22 17 -2 55 -8 85 -14 30 -5 73 -12 95 -15 22 -3 67 -10 100 -15 33 -5
78 -12 100 -15 22 -3 49 -7 60 -9 11 -3 31 -5 45 -5 53 -2 53 -8 -5 -177 -31
-87 -69 -199 -86 -249 -17 -49 -33 -97 -36 -105 -3 -8 -7 -19 -9 -25 -1 -5
-48 -143 -104 -305 -165 -478 -300 -871 -320 -930 -10 -30 -64 -188 -120 -350
-155 -451 -311 -905 -335 -975 -7 -22 -66 -193 -130 -380 -64 -187 -143 -416
-175 -510 -32 -93 -109 -316 -170 -495 -154 -446 -149 -433 -235 -729 -41
-146 -77 -266 -79 -268 -1 -2 -13 32 -25 74 -106 374 -161 547 -269 858 -33
94 -62 177 -65 185 -3 8 -15 44 -27 80 -12 36 -42 121 -65 190 -24 69 -89 258
-145 420 -56 162 -122 354 -147 425 -25 72 -58 171 -75 220 -16 50 -33 99 -38
110 -5 11 -39 108 -75 215 -37 107 -112 326 -167 485 -55 160 -124 362 -154
450 -68 197 -125 363 -244 705 -50 146 -100 292 -112 325 -46 138 -119 351
-125 365 -3 8 -7 20 -9 25 -1 6 -29 87 -62 181 l-60 172 57 8 c31 4 58 8 61 9
7 2 100 16 140 21 19 3 60 9 90 14 55 9 85 14 150 25 19 3 46 7 60 10 14 3 47
7 75 11 27 3 52 7 54 10 3 3 5 577 2 690 l-1 31 -1235 0 c-680 0 -1237 -2
-1238 -6z"/>
</g>
</svg>
